PathFileType	4	(X/Y/Z)	/Users/itak/Documents/Research/Walk-IL/dataset/trc/00517_00183.trc
DataRate	CameraRate	NumFrames	NumMarkers	Units	OrigDataRate	OrigDataStartFrame	OrigNumFrames
100.000000	100.000000	4	54	mm	100.000000	98	392
Frame#	Time	RPSI			LPSI			L3			STRN			T10			C7			CLAV			RBAK			LBAK			LSHO			LUPA			LAEL			LAOL			LWTS			LWPS			LFRA			LIFD			LHPS			LHTS			RSHO			RUPA			RAEL			RAOL			RWTS			RWPS			RFRA			RIFD			RHTS			RHPS			RBHD			LFHD			RFHD			LBHD			RHIP			RASI			LASI			LKNE			LTHI			LANK			LTIP			LTOE			LMT1			LMT5			LHEE			RKNE			RTHI			RANK			RTIP			RTOE			RMT1			RMT5			RHEE			LHIP			*53			
		X1	Y1	Z1	X2	Y2	Z2	X3	Y3	Z3	X4	Y4	Z4	X5	Y5	Z5	X6	Y6	Z6	X7	Y7	Z7	X8	Y8	Z8	X9	Y9	Z9	X10	Y10	Z10	X11	Y11	Z11	X12	Y12	Z12	X13	Y13	Z13	X14	Y14	Z14	X15	Y15	Z15	X16	Y16	Z16	X17	Y17	Z17	X18	Y18	Z18	X19	Y19	Z19	X20	Y20	Z20	X21	Y21	Z21	X22	Y22	Z22	X23	Y23	Z23	X24	Y24	Z24	X25	Y25	Z25	X26	Y26	Z26	X27	Y27	Z27	X28	Y28	Z28	X29	Y29	Z29	X30	Y30	Z30	X31	Y31	Z31	X32	Y32	Z32	X33	Y33	Z33	X34	Y34	Z34	X35	Y35	Z35	X36	Y36	Z36	X37	Y37	Z37	X38	Y38	Z38	X39	Y39	Z39	X40	Y40	Z40	X41	Y41	Z41	X42	Y42	Z42	X43	Y43	Z43	X44	Y44	Z44	X45	Y45	Z45	X46	Y46	Z46	X47	Y47	Z47	X48	Y48	Z48	X49	Y49	Z49	X50	Y50	Z50	X51	Y51	Z51	X52	Y52	Z52	X53	Y53	Z53	X54	Y54	Z54	

99	0.98	-208.8834838867188	928.9386596679688	-209.4195404052734	-179.2621765136719	925.205810546875	-330.1270751953125	-192.4086303710938	999.0599365234375	-262.830810546875	29.13325691223145	1156.544555664062	-234.8073120117188	-204.5740814208984	1103.348999023438	-255.135986328125	-151.7558746337891	1331.525512695312	-246.3033294677734	-2.424486398696899	1252.59619140625	-238.2755737304688	-211.3369750976562	1210.692138671875	-163.5086364746094	-173.8423767089844	1277.459716796875	-335.0871276855469	-74.47492980957031	1322.521484375	-402.7143859863281	-92.41545867919922	1198.947265625	-466.0205993652344	-105.6050796508789	990.7936401367188	-499.835205078125	-171.0078735351562	986.5146484375	-422.365234375	-45.0983772277832	785.6963500976562	-478.123046875	-133.0176239013672	767.7012939453125	-508.8675842285156	-100.2246856689453	903.1967163085938	-507.5562133789062	-74.58201599121094	629.7219848632812	-478.0863037109375	-119.8721160888672	711.1476440429688	-511.4160766601562	-54.49785614013672	709.0307006835938	-501.6233215332031	-107.5493240356445	1323.942016601562	-94.87091064453125	-125.8957443237305	1255.941162109375	-39.08474731445312	-99.1199951171875	989.9991455078125	13.14350414276123	-148.0555572509766	966.4016723632812	-24.0400562286377	31.12535667419434	808.6504516601562	-16.25807189941406	-34.72520065307617	771.6482543945312	33.77164459228516	-87.93376922607422	935.7381591796875	20.44593811035156	70.01173400878906	656.267822265625	3.663727998733521	67.15988922119141	726.2802124023438	15.81346797943115	2.464156866073608	710.0663452148438	38.4142951965332	-106.6133880615234	1488.043334960938	-161.3326416015625	40.66513824462891	1537.468872070312	-287.3539733886719	22.8634204864502	1534.996337890625	-161.3571929931641	-98.88402557373047	1487.97509765625	-320.9499816894531	-150.1124420166016	825.976318359375	-62.60892105102539	-31.12868118286133	864.9608154296875	-94.91304779052734	27.30513572692871	889.7986450195312	-329.2904968261719	128.8302612304688	484.2726135253906	-333.3396911621094	73.38497161865234	624.7534790039062	-377.9666442871094	136.4805145263672	44.76774597167969	-322.6337890625	145.8724670410156	331.6495361328125	-334.0928344726562	314.741455078125	60.12092971801758	-228.7782897949219	237.559814453125	49.48538970947266	-208.7147216796875	242.5089874267578	48.51569366455078	-311.4837036132812	81.95270538330078	38.09481048583984	-267.3216857910156	-211.0094299316406	452.1738586425781	-135.6953735351562	-138.6001739501953	694.3596801757812	-66.90615081787109	-497.7879028320312	119.258674621582	-217.9791870117188	-276.1387939453125	320.393310546875	-164.7107543945312	-332.7841796875	38.68517684936523	-230.6208343505859	-373.9197692871094	55.58901977539062	-279.5060729980469	-410.7552490234375	53.58012771606445	-189.3316497802734	-534.001220703125	147.5522613525391	-271.1632080078125	-36.07933044433594	857.5643920898438	-425.6993408203125	nan	nan	nan	
100	0.99	-195.8987884521484	929.5547485351562	-207.6642303466797	-166.6702270507812	926.9758911132812	-328.5514221191406	-179.7579650878906	1000.283081054688	-260.9255065917969	41.71965789794922	1158.059936523438	-234.1448516845703	-192.0956726074219	1104.414306640625	-253.2551879882812	-139.7083587646484	1332.675048828125	-244.8764190673828	9.900774002075195	1254.001220703125	-237.5122528076172	-198.5106201171875	1211.80029296875	-161.7234344482422	-162.0232696533203	1278.580444335938	-333.5011596679688	-63.04374694824219	1323.803344726562	-401.5846862792969	-81.31327056884766	1200.299682617188	-464.8370361328125	-95.18238830566406	992.2012939453125	-498.3187561035156	-159.7026977539062	988.0234375	-420.1806030273438	-34.87145614624023	786.9218139648438	-477.1228637695312	-123.0464096069336	768.9639282226562	-506.8166198730469	-89.99839019775391	904.5768432617188	-506.0027160644531	-64.4842529296875	630.9490356445312	-476.3939208984375	-110.0589447021484	712.400390625	-509.3782653808594	-44.59654235839844	710.2019653320312	-500.3300170898438	-94.6673583984375	1325.232421875	-93.710693359375	-112.8834915161133	1257.370849609375	-37.78096008300781	-88.32577514648438	991.0858764648438	13.45045566558838	-137.5361633300781	968.2033081054688	-23.98731803894043	39.67572784423828	808.0817260742188	-15.62455368041992	-26.93847465515137	771.8236083984375	33.85774993896484	-77.87472534179688	936.7649536132812	20.59680557250977	76.35049438476562	655.1328735351562	4.015455722808838	74.39368438720703	725.1204223632812	16.37476348876953	9.337957382202148	709.7477416992188	38.53294372558594	-95.57796478271484	1489.06298828125	-160.321044921875	51.7186279296875	1539.305908203125	-285.9959411621094	33.64715194702148	1536.696044921875	-160.0407867431641	-87.50525665283203	1489.099853515625	-319.9283142089844	-136.0385437011719	825.4859619140625	-61.6083984375	-17.48143196105957	865.0406494140625	-94.96778869628906	40.05089569091797	891.9735107421875	-329.2197265625	138.9715118408203	484.972900390625	-331.448486328125	84.99655914306641	626.1058959960938	-376.9964599609375	137.7218170166016	45.35216522216797	-322.3341369628906	154.0878448486328	331.8576049804688	-332.1737976074219	317.0478515625	55.5344123840332	-227.1089019775391	238.5991516113281	47.30931091308594	-207.9786987304688	243.8228607177734	47.5169563293457	-310.4343566894531	82.71553802490234	38.97969436645508	-267.12109375	-194.8877563476562	451.8904113769531	-133.7347259521484	-123.7977294921875	693.8372192382812	-66.44063568115234	-490.5156555175781	126.6600570678711	-214.7018432617188	-262.5020141601562	321.1448364257812	-161.1598663330078	-332.2723693847656	38.21309661865234	-230.2686157226562	-371.0850524902344	57.14720153808594	-278.4869384765625	-407.6402587890625	54.94540405273438	-188.2446441650391	-524.8997802734375	157.8293609619141	-267.2008972167969	-23.94646644592285	860.1940307617188	-425.3183898925781	nan	nan	nan	
101	1	-183.1355133056641	930.18212890625	-205.9361267089844	-154.2410736083984	928.7191772460938	-326.9836120605469	-167.2532501220703	1001.571533203125	-259.0381164550781	54.21155548095703	1159.676635742188	-233.4879913330078	-179.6977233886719	1105.601440429688	-251.4067230224609	-127.7640762329102	1333.918579101562	-243.40966796875	22.14144897460938	1255.52734375	-236.7160034179688	-185.7817077636719	1212.993408203125	-159.9435119628906	-150.2482452392578	1279.827270507812	-331.8917541503906	-51.6556510925293	1325.27734375	-400.3956909179688	-70.26492309570312	1201.870483398438	-463.6278686523438	-84.65008544921875	993.8177490234375	-496.7904968261719	-148.1694793701172	989.5758666992188	-417.9943237304688	-24.35569763183594	788.40185546875	-476.0784606933594	-112.7374801635742	770.3756713867188	-504.7619323730469	-79.56515502929688	906.1728515625	-504.4146423339844	-53.89985656738281	632.4083862304688	-474.6480712890625	-99.81926727294922	713.8233032226562	-507.3246154785156	-34.30633926391602	711.6102294921875	-498.991455078125	-81.91030883789062	1326.630004882812	-92.5264892578125	-99.98293304443359	1258.9140625	-36.4476318359375	-77.68158721923828	992.3133544921875	13.75538158416748	-127.1413421630859	970.1802368164062	-23.98593330383301	47.95602035522461	807.5650024414062	-14.81145572662354	-19.55417251586914	772.1019287109375	33.93507385253906	-68.00432586669922	937.9524536132812	20.76151466369629	82.20849609375	654.0391235351562	4.53606128692627	81.20801544189453	723.9899291992188	17.14236831665039	15.7202033996582	709.5108642578125	38.70694351196289	-84.61964416503906	1490.195068359375	-159.2290649414062	62.71341323852539	1541.219360351562	-284.5456237792969	44.36765289306641	1538.474975585938	-158.6387634277344	-76.20378112792969	1490.348754882812	-318.8172912597656	-122.0658416748047	825.0590209960938	-60.63336563110352	-3.990171909332275	865.3173828125	-95.10163879394531	52.66237258911133	894.2279663085938	-329.2216491699219	148.5429229736328	485.3960266113281	-329.6106262207031	96.28246307373047	627.2655639648438	-376.044921875	138.7882690429688	45.86799240112305	-321.9760131835938	161.7470092773438	331.8675842285156	-330.2622375488281	319.1940307617188	51.34036636352539	-225.6860198974609	239.5296173095703	45.50958633422852	-207.398193359375	244.9930877685547	46.81709289550781	-309.5615844726562	83.36138916015625	39.66918182373047	-266.9218139648438	-177.8364105224609	451.3883666992188	-131.2408142089844	-108.9507904052734	693.3899536132812	-65.87713623046875	-482.1812438964844	134.6910858154297	-211.0998687744141	-247.8471527099609	321.88720703125	-157.2662200927734	-331.1286315917969	37.57302093505859	-229.7398681640625	-367.7003173828125	59.22194671630859	-277.1834716796875	-404.0274963378906	57.05527877807617	-186.8975830078125	-514.5546264648438	168.645263671875	-262.8838500976562	-12.00223445892334	862.7765502929688	-424.9519653320312	nan	nan	nan	
102	1.01	-170.6379699707031	930.8214111328125	-204.3170166015625	-141.9900817871094	930.4260864257812	-325.4951477050781	-154.8895721435547	1002.911376953125	-257.2613220214844	66.58427429199219	1161.355590820312	-232.8040771484375	-167.3789215087891	1106.882568359375	-249.6655578613281	-115.9326705932617	1335.236450195312	-241.9285278320312	34.27958297729492	1257.140747070312	-235.8628997802734	-173.2080841064453	1214.235107421875	-158.2284545898438	-138.5167083740234	1281.171752929688	-330.298828125	-40.28345108032227	1326.905029296875	-399.1549682617188	-59.23426818847656	1203.609741210938	-462.3949279785156	-74.00596618652344	995.591552734375	-495.2770385742188	-136.4837341308594	991.1640625	-415.8515625	-13.54989624023438	790.0994873046875	-474.9894104003906	-102.1040725708008	771.9008178710938	-502.7216186523438	-68.93619537353516	907.927001953125	-502.8186340332031	-42.8400764465332	634.0609130859375	-472.8626098632812	-89.16154479980469	715.3760986328125	-505.2698059082031	-23.62620162963867	713.2227783203125	-497.6087341308594	-69.35036468505859	1328.089233398438	-91.31829071044922	-87.2855224609375	1260.5048828125	-35.10585403442383	-67.22866058349609	993.6306762695312	14.0726318359375	-116.8810195922852	972.255859375	-24.017333984375	55.98371505737305	807.0881958007812	-13.82502174377441	-12.54509830474854	772.4677124023438	34.02725982666016	-58.33649444580078	939.2423095703125	20.96138572692871	87.63558959960938	652.9810180664062	5.194830417633057	87.64230346679688	722.8845825195312	18.08871269226074	21.67145538330078	709.34033203125	38.92958068847656	-73.76605224609375	1491.408447265625	-158.0527191162109	73.62877655029297	1543.191284179688	-282.9869384765625	54.9966926574707	1540.304443359375	-157.1362762451172	-64.99584197998047	1491.7060546875	-317.6124572753906	-108.3303146362305	824.7291259765625	-59.72953796386719	9.226033210754395	865.7915649414062	-95.24956512451172	65.10957336425781	896.4573974609375	-329.2350769042969	157.4654541015625	485.5067138671875	-327.8754577636719	107.1655578613281	628.1629028320312	-375.0989685058594	139.6893157958984	46.31273651123047	-321.5656127929688	168.742431640625	331.6574096679688	-328.4173583984375	321.1270446777344	47.52726364135742	-224.4935913085938	240.3563232421875	44.00772476196289	-206.9337921142578	246.0314025878906	46.30935287475586	-308.8398742675781	83.89682769775391	40.18044662475586	-266.7174682617188	-159.9128723144531	450.6506958007812	-128.2077484130859	-94.14720916748047	693.064208984375	-65.23660278320312	-472.6797485351562	143.34033203125	-207.2429656982422	-232.1742858886719	322.6294250488281	-153.1190490722656	-329.1653442382812	36.82143783569336	-228.9263305664062	-363.5762023925781	61.90165710449219	-275.5308837890625	-399.7449340820312	60.07346725463867	-185.2267150878906	-502.9275207519531	179.8903350830078	-258.3283386230469	-0.2184559404850006	865.2412109375	-424.5846252441406	nan	nan	nan	
